<?xml version="1.0" standalone="no"?>
<!DOCTYPE svg PUBLIC "-//W3C//DTD SVG 20010904//EN"
 "http://www.w3.org/TR/2001/REC-SVG-20010904/DTD/svg10.dtd">
<svg version="1.0" xmlns="http://www.w3.org/2000/svg"
 width="690.000000pt" height="269.000000pt" viewBox="0 0 690.000000 269.000000"
 preserveAspectRatio="xMidYMid meet">

<g transform="translate(0.000000,269.000000) scale(0.100000,-0.100000)"
fill="#000000" stroke="none">
<path d="M40 2058 l0 -603 133 -52 c273 -107 470 -162 994 -277 420 -93 543
-123 751 -188 350 -108 629 -239 912 -428 148 -99 255 -184 409 -323 67 -62
133 -117 145 -124 48 -27 148 -4 187 43 36 45 232 212 351 302 382 285 753
457 1299 601 64 16 271 64 460 106 600 133 794 187 1077 300 l92 37 0 604 c0
332 -1 604 -3 604 -1 0 -39 -15 -84 -34 -338 -143 -796 -274 -1363 -390 -474
-98 -561 -116 -723 -157 -298 -74 -533 -165 -722 -277 -157 -93 -354 -268
-457 -404 -24 -32 -46 -58 -49 -58 -3 0 -28 27 -54 61 -221 282 -513 474 -915
603 -168 55 -382 108 -665 165 -861 176 -1207 268 -1614 430 -84 34 -154 61
-157 61 -2 0 -4 -271 -4 -602z"/>
</g>
</svg>
